<svg xmlns="http://www.w3.org/2000/svg" viewBox="0 0 120 120" width="120" height="120" role="img" aria-label="">
<title>Mark — a Gaussian over its axis, which is also an A</title>
<desc>A fitted Gaussian crossing a full-width axis through the middle of the figure. One line does both jobs: the x axis a peak is measured against, and the crossbar that makes the figure the letter A. GENERATED — see imagery/mark-peak.json.</desc>
<g fill="none" stroke="#232323" stroke-linecap="butt" stroke-linejoin="round">
<path d="M10.0 77.9 L10.4 77.8 L10.8 77.7 L11.2 77.6 L11.5 77.4 L11.9 77.3 L12.3 77.2 L12.7 77.0 L13.1 76.9 L13.5 76.7 L13.8 76.5 L14.2 76.4 L14.6 76.2 L15.0 76.0 L15.4 75.8 L15.8 75.6 L16.2 75.4 L16.5 75.2 L16.9 74.9 L17.3 74.7 L17.7 74.5 L18.1 74.2 L18.5 74.0 L18.8 73.7 L19.2 73.4 L19.6 73.1 L20.0 72.8 L20.4 72.5 L20.8 72.2 L21.2 71.8 L21.5 71.5 L21.9 71.1 L22.3 70.8 L22.7 70.4 L23.1 70.0 L23.5 69.6 L23.8 69.2 L24.2 68.8 L24.6 68.3 L25.0 67.9 L25.4 67.4 L25.8 67.0 L26.2 66.5 L26.5 66.0 L26.9 65.5 L27.3 65.0 L27.7 64.5 L28.1 63.9 L28.5 63.4 L28.8 62.8 L29.2 62.2 L29.6 61.6 L30.0 61.0 L30.4 60.4 L30.8 59.8 L31.2 59.2 L31.5 58.5 L31.9 57.9 L32.3 57.2 L32.7 56.5 L33.1 55.8 L33.5 55.1 L33.8 54.4 L34.2 53.7 L34.6 53.0 L35.0 52.2 L35.4 51.5 L35.8 50.7 L36.2 50.0 L36.5 49.2 L36.9 48.4 L37.3 47.7 L37.7 46.9 L38.1 46.1 L38.5 45.3 L38.8 44.5 L39.2 43.7 L39.6 42.9 L40.0 42.1 L40.4 41.3 L40.8 40.5 L41.2 39.6 L41.5 38.8 L41.9 38.0 L42.3 37.2 L42.7 36.4 L43.1 35.6 L43.5 34.8 L43.8 34.0 L44.2 33.2 L44.6 32.4 L45.0 31.7 L45.4 30.9 L45.8 30.1 L46.2 29.4 L46.5 28.6 L46.9 27.9 L47.3 27.2 L47.7 26.5 L48.1 25.8 L48.5 25.1 L48.8 24.4 L49.2 23.8 L49.6 23.2 L50.0 22.5 L50.4 21.9 L50.8 21.3 L51.2 20.8 L51.5 20.2 L51.9 19.7 L52.3 19.2 L52.7 18.7 L53.1 18.2 L53.5 17.8 L53.8 17.4 L54.2 17.0 L54.6 16.6 L55.0 16.2 L55.4 15.9 L55.8 15.6 L56.2 15.3 L56.5 15.1 L56.9 14.9 L57.3 14.7 L57.7 14.5 L58.1 14.3 L58.5 14.2 L58.8 14.1 L59.2 14.1 L59.6 14.0 L60.0 14.0 L60.4 14.0 L60.8 14.1 L61.2 14.1 L61.5 14.2 L61.9 14.3 L62.3 14.5 L62.7 14.7 L63.1 14.9 L63.5 15.1 L63.8 15.3 L64.2 15.6 L64.6 15.9 L65.0 16.2 L65.4 16.6 L65.8 17.0 L66.2 17.4 L66.5 17.8 L66.9 18.2 L67.3 18.7 L67.7 19.2 L68.1 19.7 L68.5 20.2 L68.8 20.8 L69.2 21.3 L69.6 21.9 L70.0 22.5 L70.4 23.2 L70.8 23.8 L71.2 24.4 L71.5 25.1 L71.9 25.8 L72.3 26.5 L72.7 27.2 L73.1 27.9 L73.5 28.6 L73.8 29.4 L74.2 30.1 L74.6 30.9 L75.0 31.7 L75.4 32.4 L75.8 33.2 L76.2 34.0 L76.5 34.8 L76.9 35.6 L77.3 36.4 L77.7 37.2 L78.1 38.0 L78.5 38.8 L78.8 39.6 L79.2 40.5 L79.6 41.3 L80.0 42.1 L80.4 42.9 L80.8 43.7 L81.2 44.5 L81.5 45.3 L81.9 46.1 L82.3 46.9 L82.7 47.7 L83.1 48.4 L83.5 49.2 L83.8 50.0 L84.2 50.7 L84.6 51.5 L85.0 52.2 L85.4 53.0 L85.8 53.7 L86.2 54.4 L86.5 55.1 L86.9 55.8 L87.3 56.5 L87.7 57.2 L88.1 57.9 L88.5 58.5 L88.8 59.2 L89.2 59.8 L89.6 60.4 L90.0 61.0 L90.4 61.6 L90.8 62.2 L91.2 62.8 L91.5 63.4 L91.9 63.9 L92.3 64.5 L92.7 65.0 L93.1 65.5 L93.5 66.0 L93.8 66.5 L94.2 67.0 L94.6 67.4 L95.0 67.9 L95.4 68.3 L95.8 68.8 L96.2 69.2 L96.5 69.6 L96.9 70.0 L97.3 70.4 L97.7 70.8 L98.1 71.1 L98.5 71.5 L98.8 71.8 L99.2 72.2 L99.6 72.5 L100.0 72.8 L100.4 73.1 L100.8 73.4 L101.2 73.7 L101.5 74.0 L101.9 74.2 L102.3 74.5 L102.7 74.7 L103.1 74.9 L103.5 75.2 L103.8 75.4 L104.2 75.6 L104.6 75.8 L105.0 76.0 L105.4 76.2 L105.8 76.4 L106.2 76.5 L106.5 76.7 L106.9 76.9 L107.3 77.0 L107.7 77.2 L108.1 77.3 L108.5 77.4 L108.8 77.6 L109.2 77.7 L109.6 77.8 L110.0 77.9" stroke-width="4" vector-effect="non-scaling-stroke"></path>
<line x1="10" y1="62" x2="110" y2="62" stroke-width="4" vector-effect="non-scaling-stroke"></line>
</g>
</svg>