<svg xmlns="http://www.w3.org/2000/svg" viewBox="0 0 64 64" width="64" height="64" role="img" aria-label="">
<title>mcp-server-analyzer</title>
<desc>Index thumbnail. A fitted peak on its axis; the peak height encodes this project's usage as a share of the largest value IN ITS OWN UNIT (frac 0.387). Drawn as a 1.4px STROKE, not a fill. The previous cut applied the layer-drop rule literally and produced a single filled bar covering 30 to 100 per cent of the tile, in a tone identical to --ink, which made the decoration the brightest thing in every index row — tone capped, area not. The axis is kept so the peak is read against something: one layer of a bar figure is a rectangle. GENERATED.</desc>
<rect x="0" y="0" width="64" height="64" rx="11" fill="#fafafa"></rect><line x1="5" y1="46" x2="59" y2="46" stroke="#8f8f8f" stroke-width="1" vector-effect="non-scaling-stroke"></line><path d="M7.00 45.45 L7.36 45.40 L7.71 45.33 L8.07 45.27 L8.43 45.20 L8.79 45.12 L9.14 45.03 L9.50 44.94 L9.86 44.85 L10.21 44.74 L10.57 44.63 L10.93 44.51 L11.29 44.38 L11.64 44.24 L12.00 44.10 L12.36 43.94 L12.71 43.78 L13.07 43.60 L13.43 43.42 L13.79 43.22 L14.14 43.02 L14.50 42.80 L14.86 42.57 L15.21 42.33 L15.57 42.09 L15.93 41.83 L16.29 41.55 L16.64 41.27 L17.00 40.98 L17.36 40.68 L17.71 40.36 L18.07 40.04 L18.43 39.71 L18.79 39.36 L19.14 39.01 L19.50 38.65 L19.86 38.28 L20.21 37.91 L20.57 37.53 L20.93 37.14 L21.29 36.75 L21.64 36.36 L22.00 35.97 L22.36 35.57 L22.71 35.17 L23.07 34.77 L23.43 34.38 L23.79 33.98 L24.14 33.60 L24.50 33.21 L24.86 32.84 L25.21 32.47 L25.57 32.11 L25.93 31.76 L26.29 31.43 L26.64 31.10 L27.00 30.80 L27.36 30.50 L27.71 30.23 L28.07 29.97 L28.43 29.73 L28.79 29.51 L29.14 29.31 L29.50 29.13 L29.86 28.98 L30.21 28.84 L30.57 28.73 L30.93 28.65 L31.29 28.59 L31.64 28.55 L32.00 28.54 L32.36 28.55 L32.71 28.59 L33.07 28.65 L33.43 28.73 L33.79 28.84 L34.14 28.98 L34.50 29.13 L34.86 29.31 L35.21 29.51 L35.57 29.73 L35.93 29.97 L36.29 30.23 L36.64 30.50 L37.00 30.80 L37.36 31.10 L37.71 31.43 L38.07 31.76 L38.43 32.11 L38.79 32.47 L39.14 32.84 L39.50 33.21 L39.86 33.60 L40.21 33.98 L40.57 34.38 L40.93 34.77 L41.29 35.17 L41.64 35.57 L42.00 35.97 L42.36 36.36 L42.71 36.75 L43.07 37.14 L43.43 37.53 L43.79 37.91 L44.14 38.28 L44.50 38.65 L44.86 39.01 L45.21 39.36 L45.57 39.71 L45.93 40.04 L46.29 40.36 L46.64 40.68 L47.00 40.98 L47.36 41.27 L47.71 41.55 L48.07 41.83 L48.43 42.09 L48.79 42.33 L49.14 42.57 L49.50 42.80 L49.86 43.02 L50.21 43.22 L50.57 43.42 L50.93 43.60 L51.29 43.78 L51.64 43.94 L52.00 44.10 L52.36 44.24 L52.71 44.38 L53.07 44.51 L53.43 44.63 L53.79 44.74 L54.14 44.85 L54.50 44.94 L54.86 45.03 L55.21 45.12 L55.57 45.20 L55.93 45.27 L56.29 45.33 L56.64 45.40 L57.00 45.45" fill="none" stroke="#232323" stroke-width="1.4" stroke-linejoin="round" vector-effect="non-scaling-stroke"></path>
</svg>